<svg xmlns="http://www.w3.org/2000/svg" viewBox="0 0 75 75"><path d="M75 11.25C75 5.041 69.959 0 63.75 0h-52.5C5.041 0 0 5.041 0 11.25v52.5C0 69.959 5.041 75 11.25 75h52.5C69.959 75 75 69.959 75 63.75v-52.5Z" style="fill:#4c0206"/><path d="M32.873 35.201a8.745 8.745 0 0 1-.297.852l-.496 1.259c-.185.469-.39.964-.614 1.486-.225.522-.443 1.034-.654 1.536-.093.224-.202.39-.327.495-.126.106-.38.165-.763.179l-5.786.099-.714 8.798a1.082 1.082 0 0 1-.099.347.63.63 0 0 1-.238.268 6.262 6.262 0 0 1-.465.227c-.271.126-.611.275-1.021.446-.41.172-.859.357-1.348.555-.488.198-.971.38-1.446.545-.476.165-.912.304-1.308.416-.396.113-.707.169-.931.169a1.73 1.73 0 0 1-.724-.149c-.218-.099-.327-.3-.327-.604-.013-.661.004-1.391.05-2.19.046-.799.102-1.612.168-2.438.066-.825.139-1.638.218-2.437.08-.799.146-1.529.198-2.19l.139-1.664c-1.11 0-1.902-.03-2.378-.089-.475-.06-.713-.215-.713-.466 0-.172.099-.396.297-.674.277-.383.591-.845.941-1.387a159.16 159.16 0 0 0 1.863-2.953c.244-.396.4-.64.466-.733l.376-5.45c-.251 0-.469.004-.654.01l-.505.02-.426.02c-.132.007-.271.01-.416.01-.634 0-1.087-.036-1.358-.109-.27-.073-.406-.208-.406-.406 0-.093.079-.284.238-.575.158-.291.353-.624.585-1.001.231-.376.482-.773.753-1.189.27-.416.511-.802.723-1.159l1.189-2.021 9.016-.317c1.163-.04 2.319-.083 3.468-.129l3.181-.129a440.435 440.435 0 0 0 3.973-.178c.013 0 .05.003.109.01a.543.543 0 0 1 .377.227c.059.08.089.192.089.337 0 .08-.093.344-.278.793-.185.449-.449 1.116-.792 2.001l-.872 2.299a1.559 1.559 0 0 1-.317.515c-.119.119-.37.185-.753.199-.45.013-.905.033-1.368.059-.462.026-.938.053-1.426.079l-6.025.298c-.079.515-.135.898-.168 1.149a7.343 7.343 0 0 0-.07 1.12c0 .165-.006.426-.019.782-.014.251-.03.463-.05.634l-.059.506c-.02.165-.04.34-.06.525-.02.185-.036.416-.049.694l2.566-.08c.839-.026 1.612-.053 2.318-.079l1.833-.069c.516-.02.879-.03 1.09-.03.106 0 .225.04.357.119.132.079.198.231.198.456 0 .105-.02.224-.059.356ZM62.003 30.901c-.013 1.136-.122 2.153-.327 3.052a10.015 10.015 0 0 1-.872 2.427 8.822 8.822 0 0 1-1.367 1.942 12.837 12.837 0 0 1-1.833 1.615 14.81 14.81 0 0 1-4.34 2.151 16.08 16.08 0 0 1-5.519.703 16.626 16.626 0 0 1-.783-.059l-.654 7.233-.336.614c-.027.053-.251.158-.674.317-.423.159-.951.344-1.585.555l-1.249.416c-.396.145-.746.277-1.05.396-.304.119-.588.225-.852.317a5.25 5.25 0 0 1-.773.209 4.392 4.392 0 0 1-.793.069c-.185 0-.33-.046-.436-.139-.105-.092-.158-.271-.158-.535l.218-3.389c.039-.673.089-1.35.148-2.031.06-.68.116-1.456.169-2.328l.376-4.736c.079-.965.152-1.929.218-2.894.066-.964.132-1.882.198-2.754.066-.872.126-1.688.179-2.447l.138-1.992a35.66 35.66 0 0 1-1.714.347 6.463 6.463 0 0 1-.981.109c-.277 0-.416-.119-.416-.357.185-.647.357-1.281.515-1.902.146-.529.294-1.074.446-1.635.152-.562.281-1.034.387-1.417.066-.238.142-.42.228-.545a.904.904 0 0 1 .337-.297c.138-.073.317-.139.535-.198.218-.06.485-.142.802-.248a12.77 12.77 0 0 1 1.06-.268c.456-.099.978-.198 1.566-.297a66.526 66.526 0 0 1 4.003-.535 58.187 58.187 0 0 1 2.09-.178c.687-.047 1.335-.07 1.942-.07 1.507 0 2.933.139 4.281.416 1.347.278 2.53.75 3.547 1.417 1.017.668 1.826 1.566 2.428 2.695.601 1.13.901 2.547.901 4.251Zm-14.486 5.945c0 .145.027.274.08.386.052.113.198.169.436.169.369 0 .809-.083 1.317-.248a6.475 6.475 0 0 0 1.526-.743c.509-.33.981-.74 1.417-1.229a4.946 4.946 0 0 0 .991-1.724c.092-.264.168-.601.228-1.01.059-.41.089-.892.089-1.447 0-.925-.32-1.605-.961-2.041-.641-.436-1.476-.654-2.507-.654-.172 0-.367.01-.585.03-.217.02-.422.056-.614.109a2.253 2.253 0 0 0-.485.188c-.132.073-.205.169-.218.287l-.04.436c-.013.172-.04.453-.079.843-.04.389-.083.835-.129 1.337s-.092 1.031-.139 1.586a186.96 186.96 0 0 1-.138 1.585c-.047.502-.086.944-.119 1.328l-.07.812Z" style="fill:#fff;fill-rule:nonzero"/></svg>
