<svg xmlns="http://www.w3.org/2000/svg" width="933.333" height="933.333" version="1.0" viewBox="0 0 700 700"><path d="M525.7 130.6c-.1.1-5.6.4-12.2.8s-13.3.8-15 1c-1.6.2-6.6.7-11 1.1-4.4.3-9.1.8-10.5 1-1.4.2-5.3.7-8.7 1-3.4.3-7 .8-8.1 1-2.1.4-11.2 1.6-15.2 2-1.4.1-5.2.7-8.5 1.3-3.3.6-7.6 1.3-9.5 1.6-4.1.7-8.5 1.4-12 2.1-1.4.3-3.8.8-5.4 1.1-7.6 1.3-17.2 3.8-28.6 7.4-12.4 3.9-15.2 5.6-17.8 10.6-.9 1.7-5.7 17.9-6.7 22.4-.2.8-3.5 13.4-7.5 27.8-3.9 14.5-6.8 27.2-6.5 28.2.7 2.3 3.5 3 9.9 2.5 4.7-.3 7.3-.7 13.6-2 1.3-.2 4.1-.7 6.1-1 2-.3 5.1-1 7-1.5 7.3-2.1 7.2-2.3 6.4 10.2-.4 6.2-.8 12.9-1 14.8-.1 1.9-.6 8-.9 13.5-.4 5.5-.9 12-1.1 14.5-.2 2.5-.7 8.3-1 13-.8 11.7-1.5 21.5-2 28-.2 3-.7 9.5-1 14.5-.3 4.9-.8 10.6-1 12.5-.2 1.9-.7 8.2-1 14-.4 5.8-.8 11.6-1 13-.2 1.4-.6 6.8-1 12-.3 5.2-.8 11.1-1 13-.2 1.9-.7 7.3-1 12-.4 4.7-.8 10.1-1 12-.3 3.7-1.3 18.1-2 29.5-.3 3.8-.7 9-1 11.5-.3 2.5-.7 8.5-1 13.5-.3 4.9-.8 11-1 13.5-.2 2.5-.6 9.4-1 15.5-.3 6-.8 13-1 15.5-.3 2.5-.8 10.2-1.1 17.1-.6 12.3-.6 12.7 1.7 14.8 2.5 2.3 2.9 2.4 10.3 2.1 8.1-.3 13.1-1.6 30.1-8 7.2-2.7 18.9-6.9 26-9.3 14.4-4.9 31.6-10.9 35.5-12.5 2.5-1 5.8-4 5.9-5.5 0-.4.7-1.7 1.5-3 .8-1.2 1.7-5.6 2.1-9.7.3-4.1.8-9.5 1-12 .3-2.5.7-7.2 1-10.5.6-7.3 1.4-16.5 2-22.5.2-2.5.7-7.9 1-12 .3-4.1.8-8.6 1-10 .2-1.4.7-6.3 1.1-11 .3-4.7.8-9.6.9-11 .2-1.4.3-3.4.4-4.6.1-2 .6-2 18.9-2 17.2 0 29.2-.6 36.7-1.9 25.5-4.6 39.8-8.7 57.8-16.6 32.6-14.3 61.2-36.9 77.5-61 6.6-9.8 16.1-31 17.6-39.2.1-.7.5-2.1.9-3.2.3-1.1.9-3.4 1.2-5 .3-1.7 1.2-7.1 2.1-12 1.8-9.4 2.5-43.7 1.2-52.5-4-27-12.9-46-29.7-63.6-15.8-16.5-45-30.7-72.1-35-1.4-.2-4.1-.7-6-1-1.9-.4-4.4-.8-5.5-.9-1.1-.2-4.1-.5-6.5-.9-10.6-1.3-19.6-1.8-35.8-2-9.5-.2-17.3-.2-17.5 0zm11.8 88.5c12.3.5 25.6 5.6 32.8 12.6 7.8 7.5 10.3 16.7 9.3 33.8-.9 16.3-2 21.6-6.3 32-9.9 23.6-35.6 44-63.3 49.9-6.5 1.4-13.7 1.3-15.3-.3-1.6-1.6-1.4-12.2.8-34.1.2-1.9.6-7.1 1-11.5s.8-9.8 1.1-12c.3-3.7 1.3-15.1 1.9-22 .2-3.1 1.3-13.8 2-21 .3-2.2.7-7.4 1.1-11.5.3-4.1 1.2-8.5 1.9-9.6 1.8-2.9 9.3-5.4 18-6.1 3.9-.3 7.2-.7 7.4-.9.2-.2.7-.2 1 0 .4.3 3.3.5 6.6.7zM313.7 133.7c-.1 0-7.2.4-15.7.8-8.5.3-19.5.8-24.5 1-4.9.3-16 .7-24.5 1-8.5.4-19.5.8-24.5 1-4.9.2-17.1.6-27 1-9.9.3-22 .8-27 1-4.9.2-16.9.7-26.5 1-9.6.3-22.9.7-29.5 1-6.6.2-20.5.7-31 1.1-28.4.9-30.6 1.1-31.5 2-.4.5-4.8 7.6-9.6 15.9-4.8 8.2-14 23.3-20.4 33.5-15.4 24.4-19 31-19 34.9 0 2.7.5 3.4 3.8 4.9 3.1 1.4 7.1 1.7 26.5 1.6l22.8-.1-.6 11.6c-.4 6.4-.8 13.2-1 15.1-.2 1.9-.6 8.4-1 14.5-.4 6-.9 12.8-1 15-.2 2.2-.7 8-1 12.9-.6 8.1-1 9.5-4.3 14.6-3.8 5.7-4.2 6.3-8.8 14-5.8 9.4-28 43.7-31.4 48.5-13.1 17.9-8.4 21.3 28.8 21.5h8.4l-.6 6.7c-.3 3.8-.8 9.7-1.1 13.3-.6 7.5-1.4 16.9-2 22-.2 1.9-.7 6.9-1 11-.4 4.1-.8 9.1-1 11-.2 1.9-.6 7.3-1 12s-.8 9.6-1 11c-.2 1.4-.7 7.2-1 13-.4 5.8-.8 12.1-1 14-1.2 10.5-1.6 43.8-.6 46.2 1.5 3.9 6.5 6.1 13.6 6.1 6.6 0 7.9-.3 17.8-3.2 15.9-4.7 49-17.5 68.2-26.5 12.4-5.8 12.2-5.3 14-30.9.4-4.4.8-9.5 1-11.5.2-2.1.6-7.8 1-12.7.3-5 .8-10.6 1-12.5.2-1.9.7-7.3 1-12 .4-4.7.8-10.1 1-12 .2-1.9.6-7.3 1-12 .3-4.7.8-10.5 1-13 .2-2.5.7-8.1 1-12.5.4-4.4.8-8.2 1-8.5.2-.3 9.5-.7 20.7-.8 45.5-.6 65.2-1.2 68.9-2.2 5.2-1.4 6.4-3.3 13.9-21.5 2.3-5.5 4.8-11.5 5.6-13.3.8-1.7 2-4.7 2.8-6.5 1.9-4.3 12.1-30.1 12.2-30.7 0-.3.5-1.6 1.1-3 2.3-5.7 3.4-12.6 2.4-15.2-2-5.4-.2-5.3-56.1-3.3-19.4.7-54.6 1.8-58.5 1.9-4.5 0-4.5.2-3-12.4 1.1-9.7 1.4-14.2 2-29 .6-14.5 1-19.5 1.9-25 .3-1.9.8-4.8 1.1-6.4.2-1.6.8-3.3 1.2-3.7.5-.5 7.1-1.1 14.8-1.4 7.7-.3 17.4-.8 21.5-1 15.1-.8 28.8-1.5 40-2 6.3-.3 14.9-.7 19-1 4.1-.3 12.9-.7 19.5-1 14.8-.7 16.3-.9 19.6-2.5 3.5-1.6 4.8-4.1 10.9-20.5 7.2-19.1 19.9-51.6 21-53.7.5-.9 1.2-3.5 1.6-5.7.5-3.4.3-4.3-2-6.6-2.5-2.5-2.9-2.6-13.7-2.3-6.1.2-11.1.4-11.2.5z"/></svg>
