<svg viewBox="0 0 16 16" fill="currentColor" xmlns="http://www.w3.org/2000/svg">
    <path fill-rule="evenodd" clip-rule="evenodd" d="M.667 1.892A1.225 1.225 0 0 1 1.892.667h12.215a1.224 1.224 0 0 1 1.226 1.225v12.215a1.225 1.225 0 0 1-1.226 1.226H1.892a1.226 1.226 0 0 1-1.225-1.226V1.892Zm5.805 4.367h1.986v.997c.287-.573 1.02-1.09 2.122-1.09 2.113 0 2.613 1.143 2.613 3.238v3.881h-2.138V9.881c0-1.193-.287-1.866-1.014-1.866-1.01 0-1.43.726-1.43 1.866v3.404H6.47V6.26Zm-3.667 6.935h2.139V6.167H2.805v7.027Zm2.445-9.32a1.375 1.375 0 1 1-2.75.061 1.375 1.375 0 0 1 2.75-.06Z" />
</svg>
