<svg viewBox="0 0 16 16" fill="currentColor" xmlns="http://www.w3.org/2000/svg">
    <path d="M7.997 0C3.587 0 0 3.588 0 7.997 0 12.411 3.587 16 7.997 16 12.41 16 16 12.41 16 7.997 16 3.588 12.41 0 7.997 0ZM3.939 10.936a9.697 9.697 0 0 1 2.825-.425 9.52 9.52 0 0 1 4.595 1.18c.083.045.158.194.193.381.033.187.02.378-.035.477a.405.405 0 0 1-.556.16 8.74 8.74 0 0 0-6.776-.689.407.407 0 0 1-.514-.268c-.072-.233.076-.753.268-.816ZM3.59 7.989a12.103 12.103 0 0 1 3.173-.423c1.93 0 3.845.467 5.54 1.35a.486.486 0 0 1 .269.485.497.497 0 0 1-.057.189c-.151.296-.328.495-.44.495a.512.512 0 0 1-.233-.057 10.887 10.887 0 0 0-5.078-1.236c-.983-.002-1.962.13-2.91.39a.5.5 0 0 1-.614-.35c-.075-.281.097-.773.35-.843ZM3.5 6.065a.587.587 0 0 1-.715-.427c-.082-.332.125-.717.426-.793a14.91 14.91 0 0 1 3.552-.433c2.3 0 4.504.517 6.55 1.538a.592.592 0 0 1 .266.793c-.095.192-.302.399-.53.399a.616.616 0 0 1-.258-.058 13.35 13.35 0 0 0-6.028-1.417c-1.09 0-2.188.134-3.263.398Z" />
</svg>
