<svg viewBox="0 0 16 16" fill="currentColor" xmlns="http://www.w3.org/2000/svg">
    <path d="M.329 10.333A8.01 8.01 0 0 0 7.99 16C12.414 16 16 12.418 16 8s-3.586-8-8.009-8A8.006 8.006 0 0 0 0 7.468l.003.006 4.304 1.769A2.198 2.198 0 0 1 5.62 8.88l1.96-2.844-.001-.04a3.046 3.046 0 0 1 3.042-3.043 3.046 3.046 0 0 1 2.803 4.223 3.047 3.047 0 0 1-2.872 1.864l-2.804 2a2.223 2.223 0 0 1-3.923 1.486 2.217 2.217 0 0 1-.464-.944L.33 10.333H.329Z" fill="#F2F2F2"/><path d="M4.868 12.683a1.715 1.715 0 0 0 1.318-3.165 1.705 1.705 0 0 0-1.263-.02l1.023.424a1.262 1.262 0 0 1-.97 2.33l-.99-.41c.18.38.494.678.882.84v.001Zm3.726-6.687a2.03 2.03 0 0 0 2.027 2.029 2.03 2.03 0 0 0 2.027-2.029 2.03 2.03 0 0 0-2.027-2.027 2.03 2.03 0 0 0-2.027 2.027Zm2.03-1.527a1.524 1.524 0 1 1-.002 3.049 1.524 1.524 0 0 1 .002-3.049Z" />
</svg>
