<?xml version="1.0" standalone="no"?>
<!DOCTYPE svg PUBLIC "-//W3C//DTD SVG 20010904//EN"
 "http://www.w3.org/TR/2001/REC-SVG-20010904/DTD/svg10.dtd">
<svg version="1.0" xmlns="http://www.w3.org/2000/svg"
 width="700.000000pt" height="700.000000pt" viewBox="0 0 700.000000 700.000000"
 preserveAspectRatio="xMidYMid meet">
<metadata>
Created by potrace 1.14, written by Peter Selinger 2001-2017
</metadata>
<g transform="translate(0.000000,700.000000) scale(0.100000,-0.100000)"
fill="#000000" stroke="none">
<path d="M895 6989 c-33 -5 -91 -18 -130 -30 -372 -112 -637 -387 -736 -765
l-24 -89 0 -2605 0 -2605 21 -80 c56 -206 149 -374 285 -508 136 -134 302
-227 501 -280 l83 -22 2605 0 2605 0 80 21 c354 95 624 330 743 647 73 195 67
-59 67 2832 l0 2600 -21 80 c-35 131 -80 234 -143 332 -144 223 -360 378 -631
454 l-85 24 -2580 1 c-1425 1 -2607 -2 -2640 -7z m4025 -2063 c184 -10 374
-60 510 -134 85 -47 216 -177 262 -262 77 -139 107 -318 88 -525 -31 -343
-167 -576 -444 -760 -245 -161 -508 -237 -818 -237 -135 0 -138 0 -138 -21 0
-12 -13 -164 -29 -337 -30 -324 -40 -369 -81 -386 -8 -3 -85 -30 -170 -59 -85
-30 -207 -72 -270 -94 -76 -27 -132 -41 -165 -41 -76 0 -80 6 -77 97 3 94 40
612 82 1148 44 571 68 910 65 913 -2 2 -59 -6 -127 -18 -131 -22 -158 -20
-158 11 0 33 129 491 145 516 21 31 57 46 198 82 238 62 795 126 987 114 25
-1 88 -5 140 -7z m-1496 -22 c9 -8 16 -24 16 -35 0 -10 -26 -85 -58 -166 -33
-82 -76 -191 -96 -244 -20 -53 -46 -105 -57 -115 -18 -16 -64 -21 -451 -40
-332 -16 -432 -25 -439 -35 -9 -16 -15 -73 -30 -294 -5 -88 -12 -168 -15 -177
-7 -22 -2 -22 428 -7 351 13 348 14 348 -47 0 -51 -186 -513 -221 -549 -18
-19 -37 -20 -314 -26 -162 -3 -297 -7 -298 -10 -2 -2 -20 -194 -38 -427 -27
-324 -38 -426 -50 -437 -8 -8 -89 -46 -179 -83 -342 -143 -484 -174 -527 -116
-24 33 -17 207 33 763 14 155 23 285 21 288 -3 2 -62 8 -133 12 -105 7 -130
12 -141 27 -7 10 -13 21 -13 25 0 4 28 49 62 100 33 52 109 171 168 264 l107
170 12 185 c7 102 15 215 18 253 l6 67 -155 0 c-138 0 -158 2 -179 19 l-24 19
23 47 c13 26 57 102 99 169 42 66 105 171 141 231 36 61 65 111 66 112 1 0
273 11 606 23 333 12 729 27 880 34 384 18 366 18 384 0z"/>
<path d="M4577 4346 c-27 -7 -55 -20 -62 -27 -15 -16 -79 -669 -73 -754 3 -50
3 -50 41 -53 95 -8 258 70 363 173 112 110 154 220 154 402 0 126 -30 182
-120 228 -84 43 -211 56 -303 31z"/>
</g>
</svg>
