<svg version="1.0" xmlns="http://www.w3.org/2000/svg" width="700" height="700" viewBox="0 0 700 700"><path d="M159.9 4.2c-3.2 1.9-4.4 4.3-5.4 10-.7 4.3-4 7.5-15.9 15.2-15.1 9.9-21.7 19.1-21.8 31-.2 14 5.3 22 23.4 34.1 10.5 7 11.1 7.4 13.2 10.7 2.2 3.3 1.4 7.8-1.7 11.2-1.2 1.2-7.1 5.6-13.1 9.7-16.2 11-20.5 17.2-22 31.2-.7 6.1 6.6 12.5 12.8 11.3 4.5-.9 7.4-4.3 9.1-10.7 1.6-6.1 3.3-7.8 14.7-15.3 14.1-9.3 19.5-15.3 22.2-24.6 3.1-10.9-.2-22.6-8.5-30.8-2.4-2.3-8.9-7.3-14.3-11-11.1-7.5-13.7-10.4-13.8-15.1-.1-4.1 3.2-7.6 13.7-14.6 16.1-10.6 22.6-18.7 23.9-29.8 1.4-11.5-7.4-18.1-16.5-12.5zM487.4 22.7c-4.9 2.4-5.8 4.7-5.9 16.6-.1 5.9-.5 11-.8 11.3-.3.3-5.4.7-11.4.8-11.4.2-14.2 1.1-16.4 5.2-3 5.6-.6 13.4 4.7 15.4 1.4.6 7.4 1.1 13.2 1.3l10.6.2.2 10.5c.2 13.8 0 12.8 3.5 16.1 5.1 4.7 12.8 3.7 16.3-2.2 1.3-2.3 1.8-5.5 1.9-13.7l.2-10.7 10-.2c11.7-.3 13.4-.6 16.4-3.2 3.1-2.7 4-10 1.7-13.6-2.6-4-6.3-5.3-15.6-5.3-4.7 0-9.5 0-10.6-.1-2-.1-2.1-.6-2.2-11.2 0-8.2-.5-11.7-1.6-13.4-3.1-4.7-9-6.3-14.2-3.8zM334 51.7c-6.6.8-20.5 5.5-27.5 9.2-21.5 11.5-36.7 30-43.4 52.6-3.3 11.2-3.3 12.1-3.6 53.5-.2 21.7-.4 40.1-.4 40.8-.1 1.7-14.4 12.1-23.9 17.4-7.5 4.3-21 10.2-34.2 15.1-26.5 9.9-46.1 26-56.2 46.2-14.8 29.4-11.5 66.5 8.5 97.8l3.4 5.3-2.7 10.9c-1.6 6.1-3.1 13.2-3.4 16-1.2 9 .4 8.7-18.9 4.3-9.4-2.1-18.3-4.1-19.7-4.4-1.4-.3-4.6-.8-7.2-1.1-4.4-.5-5-.3-8.3 3-2.8 2.8-3.5 4.3-3.5 7.4 0 7.2 5.5 11.4 16.2 12.4.4 0 2.2.5 4 1 1.8.5 4.7 1.2 6.3 1.5 1.7.3 8.2 1.7 14.5 3.1 6.3 1.4 12 2.6 12.6 2.6.7 0 1.2 2.4 1.3 6.1.3 13.1 2 27.4 4.8 39.5.7 3.5 1.2 6.5 1 6.7-.2.2-4.4 1.1-9.3 1.9-4.9.9-9.9 1.7-11.1 2-1.2.2-5.7.9-10 1.5-4.3.7-8.5 1.4-9.5 1.5-3.6.7-11.3 1.8-11.6 1.6-.7-.5-6.3 3.2-7.6 5.1-3.3 4.6-1.2 13.1 3.7 15.7 2.4 1.3 8.3 1.2 17.2-.4 1.7-.3 5.7-.9 9-1.5s7.4-1.2 9-1.5c1.7-.3 7.5-1.2 13-2.1 5.5-.8 11-1.7 12.2-2 1.9-.5 2.7.6 7.3 10.3 4.4 9.3 11.7 22.5 14.3 25.8.4.5 3.1 4.1 5.9 8 2.8 3.8 6.4 8.5 8 10.3l2.8 3.3v30.7c0 33 .4 36.2 5.4 44.6 5.9 9.9 14.6 15.5 36.3 23.5 9.7 3.5 34.3 10.6 40.7 11.6 1.2.2 4.8.9 8.1 1.4 3.3.6 8 1.3 10.5 1.6 2.5.3 5.6.7 7 .9 14.1 2.6 56.3 2.5 75 0 9.3-1.2 18.6-2.8 27-4.5 20-4 49.2-14.1 61.4-21.3 8.9-5.2 15.7-15.2 18.2-26.9.1-.4.2-14.5.3-31.5l.1-30.7 3.5-4c4.1-4.6 4.3-4.9 7.5-9.5 1.4-1.9 2.7-3.7 3-4 2.7-2.6 14.7-23.9 18.1-32 1.2-3 2.7-6.1 3.3-6.7 1.3-1.4 1.3-1.4 34.5 4.3 8.1 1.4 17.5 2.8 21.1 3 6 .5 6.7.3 9.2-2.1 3.4-3.1 4.4-6.7 3.2-11.3-1.5-5.9-3.9-6.9-26.9-10.7-11.6-1.9-22.8-3.7-25-4.1-2.2-.4-4.8-.8-5.7-.9-1 0-2-.4-2.4-.8-.3-.3.3-5 1.4-10.4 2.9-13.5 3.1-15.1 3.8-28.8.3-6.6.9-12.3 1.3-12.6.5-.5 33.3-7.8 41.7-9.3 3.5-.7 8.8-3.2 10.3-4.9.7-1 1.6-3.6 1.8-6 .4-3.6.1-4.8-2.1-7.4-3.3-3.9-7-4.8-13.8-3.4-2.9.6-6.3 1.3-7.6 1.6-1.3.2-3.1.6-4 .9-.9.3-2.9.8-4.4 1.1-5.6 1-8.3 1.6-16.1 3.4-5.6 1.4-7.9 1.6-8.2.7-.2-.6-1.1-5.4-2-10.6l-1.6-9.5 3.1-9c14.8-43.4 13.6-81.5-3.6-116-12.2-24.4-36-49.1-62.6-64.6-8.7-5.1-26-13.7-34.1-16.9-4.3-1.7-5.6-2.7-5.3-3.9.9-2.9 2.4-10.5 3.1-15.1.3-2.5.8-5.2 1-6 2-7.7 2.6-38.3.9-47.9-4.6-26.7-20.9-49.6-44.5-62.5-6.4-3.5-14.7-6.8-20.4-8.1-1.6-.4-3.9-.9-5-1.2-2.8-.7-25.2-1.2-29.5-.6zM639.3 204.2c-2.3 1.6-3.4 3.4-3.9 5.8-1.3 8.1-3.8 10.7-20 21.2-6.2 4-12.9 10.8-15.2 15.3-4.2 8.5-4.6 18.8-.9 26.9 3.2 6.9 8.9 12.5 21.6 21 11.2 7.5 14.5 11.3 13.6 16.1-.7 4-4.2 7.4-15.6 15-15.5 10.4-21.5 18.7-22 30-.4 8.9 4 13.1 12.9 12.6 3.7-.2 7.9-5.1 8.7-10.2.9-5.6 2.8-7.7 15-15.9 5.5-3.7 11.7-8.5 13.9-10.6 7.8-7.8 11-19.5 8.2-30.2-2.5-9.3-7.3-14.8-20.8-23.7-9.3-6.3-15.7-11.7-15.9-13.6-.1-.5-.2-1.5-.3-2.2-.7-4.6 4.1-9.6 17.6-18.1 7.4-4.7 14.7-12.1 17.5-17.7 2.8-5.7 3.6-14.4 1.7-18.1-3.1-6-10.3-7.6-16.1-3.6zM44.5 264.5c-5 2.5-5.8 4.9-6.1 17-.1 6-.2 11.2-.3 11.5-.1.3-5.3.5-11.6.5-11.4 0-11.5 0-14.5 3-4.6 4.6-4.5 11.3.1 15.6 3.1 2.8 3.3 2.9 14.5 2.9 8.4 0 11.4.3 11.5 1.2.1.7.3 5.1.4 9.8.1 4.7.3 9.6.4 10.8.2 3.7 5.6 8.2 9.8 8.2 4.6 0 8.9-2.6 10.4-6.3.7-1.7 1.2-7.3 1.2-13.3V315h10.9c6.1 0 11.9-.5 13.1-1.1 6.4-3.3 7.7-11.6 2.8-17.1-3.1-3.5-2.3-3.4-23.7-3.7l-3.1-.1v-10.8c0-11.9-1.1-15-6.4-17.8-3.5-1.8-5.6-1.7-9.4.1zM64.3 474.5c-3.7 1.6-5.8 4.6-6.7 9.6-.9 5.3-3.4 7.9-14.5 15.3-17.9 12-23.2 19.4-23.5 32.5-.2 13.8 5.1 21.4 23.9 34.1 14.7 9.9 16.5 12.7 12.3 19-2.2 3.2-12.4 11.9-14.1 12-1.9 0-13.1 9.5-15.9 13.4-8.5 11.5-8.6 24.4-.3 28.3 7 3.3 14-.8 15.6-9.1 1.1-6 2.6-7.6 14.8-15.8 5.8-3.9 12.2-8.9 14.4-11.2 11.6-12 12-30.1.8-42.8-1.7-2-8.5-7.3-15-11.7-8.8-6.1-12.4-9.1-13.6-11.7-3.1-6.6-.8-9.7 14.9-20.4 11.8-8 15.8-12.1 19.3-19.6 6.4-14.1-.7-26.8-12.4-21.9zM644.9 518.5c-3.9 2.1-5.2 6.5-5.3 17.8l-.1 10.2-10.8.2c-13.9.3-16.3 1.5-18.7 9.4-1 3.4 1.1 8.3 4.6 10.6 2.7 1.7 5.3 2 18.9 2.2l6.1.1.1 11.1c0 12.8 1.2 15.4 7.9 17.8 3.5 1.2 4.4 1.2 7.6-.3 5-2.4 6.5-6.7 6.4-18.4-.1-5.2.2-9.6.6-9.8.4-.3 5.6-.6 11.5-.8 12.3-.3 14.5-1.2 16.7-6.7 2-4.9.6-10.1-3.4-12.9-2.5-1.8-4.6-2.1-14.2-2.3l-11.3-.2-.1-9.5c-.1-13.9-.1-13.9-3.3-17.1-3.3-3.3-8.7-3.9-13.2-1.4zM550.3 617c-4.7 1.9-6 6.1-5.9 18l.1 11h-11c-12.7 0-15.2.9-17.8 6.2-1.5 3.1-1.6 4.3-.7 7.7 1.7 6.3 4.3 7.5 17.3 7.8 6.1.1 11.3.6 11.6 1.1.3.6.5 5 .4 9.9-.1 4.8.3 10.2.8 12 1.9 6.1 9.9 8.9 15.7 5.3 4.4-2.7 5.2-5.4 5.2-17.6V668l2.8-.1c1.5 0 6.4-.1 10.9-.1 6.2 0 8.9-.5 11.3-1.9 5.7-3.5 6.7-11 2.1-16.1l-2.9-3.3-12.1-.3-12.1-.4.1-5.1c.3-16.4.1-17.7-3.5-21.3-3.6-3.6-7.5-4.3-12.3-2.4z"/></svg>
