<svg version="1.0" xmlns="http://www.w3.org/2000/svg" width="700" height="700" viewBox="0 0 700 700"><path d="M96 77.1c-3.8.8-6.6 3.2-7.7 6.7-.5 1.5-.9 54.6-.8 117.9V317l-16.5.1c-9.1 0-17.6.2-19 .5-3.6.6-8 5.8-8.1 9.7-.4 11.9-.1 46.1.4 50.3l.7 5H26.7c-26.7.1-26.9.2-26.6 24.1.2 25 3.7 35 17.2 48.5 5.2 5.2 10.8 8.7 19.2 11.8l7 2.6.1 73.1.1 73.1 2.2 3c4.8 6.7 14.7 5.8 18.6-1.8.8-1.6 1.5-3.3 1.5-3.7 0-.4 4.7-.8 10.4-.8l10.5-.1 1.4 3.7c3.5 8.8 15.3 9.6 19.7 1.3 1.2-2.1 1.4-15.3 1.4-74.5V471l3.5-.1c4.6-.1 471.8-.1 475.2 0l2.5.1v69.7c-.1 38.4.2 71.5.5 73.6 1.8 10.9 17.3 12 20.8 1.4l1.1-3.3 10.5.1h10.4l1.4 3.6c3.6 9.1 16.1 9.6 19.8.8.9-2.4 1.2-19.5 1.2-75.5v-72.3l3.1-.7c5.8-1.2 17.5-7.7 22.3-12.3 6.7-6.5 8.8-9.3 11.7-15 5.3-10.3 5.8-12.8 6.3-31.5.5-15.8.3-18.4-1.2-21.2-2.9-5.4-4.8-5.7-36.5-5.7h-28.9l.6-5.6c.4-3.1.7-8 .7-10.9 0-5 .1-5.2 2.8-5.2 3.4 0 2.6.2 9-1.9 8.4-2.7 13.8-5.9 19.4-11.7 4.9-5 9.7-13 11-18.4 1.5-5.8 1.2-19.6-.4-24.5-5.2-15.5-18.9-27.8-33.7-30.1-2.7-.4-5.3-.9-5.7-1-.5-.1-1.1-.2-1.6-.3-.4 0-.8-3.2-.9-7-.1-8.6-2.4-12.4-8-13.8-2.1-.5-28.7-.9-59.5-.8-54.8 0-55.7.1-58.5 2.1-5.5 4.1-5.3 2.3-5.1 66.4.2 32.7.7 60.2 1.1 61.1.7 1.4-.6 1.6-11.5 1.5l-12.3-.1.2-3c.1-1.7.2-14.6.3-28.8.2-28.4.1-29.1-6.1-32.2-2.5-1.3-6.1-1.5-20-1.3-10.7.2-16.9-.1-17-.7-.1-.6-.2-53-.3-116.6-.1-108.1-.2-115.7-1.9-118.2-.9-1.4-2.7-3.2-3.9-3.9-1.8-.9-38.2-1.2-167.5-1.3-90.9 0-166.6.3-168.3.6zm547.5 220.4c6.6 2.7 12.8 11.7 12.7 18.6-.2 10-6.4 19.1-14.8 21.7-7.3 2.2-6.9 3.4-6.8-19.1.1-11.1.2-21 .3-22 .1-1.9 2.6-1.7 8.6.8z"/><path d="M526.5 100.1c-13.1 4-21.7 14.7-23.1 28.8-1.4 13.4 7.3 27.3 20.5 32.7 5.5 2.3 6.4 2.3 42.5 2.4 40.4.1 42.6.3 44.8 5.9 2 4.9-.2 12.8-4.1 14.8-.9.4-19.1 1-40.6 1.3-37.3.5-39.2.6-43.7 2.7-17.6 8.1-26.3 33.6-13.6 39.6 3.8 1.8 7.7 1.5 11.3-.9 2.5-1.6 4-4.8 5-10.6.7-4.6 5.4-8.8 9.8-8.9 13.8-.4 12.8-1 12.1 6.8-.7 8.4 1.4 12.6 7.1 14.2 7.1 1.9 12.8-1.8 14.1-9.4.8-5.3 3.2-9.2 6.3-10.5 1.4-.5 9.8-1.2 18.6-1.4 14.6-.3 16.5-.5 21.5-2.8 13.9-6.4 21.8-21.9 18.5-36.3-2.5-10.8-8.6-18.5-18.5-23.3l-5.5-2.6-36.8-.2c-20.3-.1-38.1-.5-39.5-.9-8.8-2.2-10.9-14.2-3.3-19.2 2.1-1.4 5.1-1.7 16.8-1.9 15.6-.2 18-.9 20.7-6.2 2.1-4.2 1.3-9-2.3-12.5l-3-3.1-15.1-.1c-11.5-.1-16.4.3-20.5 1.6zM598.1 99.4c-8.9 2.9-9.9 15.6-1.5 19.4 8.7 4 17.7-3.3 15.3-12.4-1.6-5.9-7.8-9-13.8-7z"/></svg>
